<?xml version="1.0" encoding="UTF-8"?>
<!DOCTYPE svg PUBLIC "-//W3C//DTD SVG 1.1//EN" "http://www.w3.org/Graphics/SVG/1.1/DTD/svg11.dtd">
<svg xmlns="http://www.w3.org/2000/svg" version="1.1" width="380px" height="420px" style="shape-rendering:geometricPrecision; text-rendering:geometricPrecision; image-rendering:optimizeQuality; fill-rule:evenodd; clip-rule:evenodd" xmlns:xlink="http://www.w3.org/1999/xlink">
<g><path style="opacity:1" fill="#659ad2" d="M 183.5,-0.5 C 187.5,-0.5 191.5,-0.5 195.5,-0.5C 250.61,30.5592 305.943,61.3925 361.5,92C 366.094,94.1184 370.094,96.9517 373.5,100.5C 373.631,101.376 373.298,102.043 372.5,102.5C 321.139,131.845 269.806,161.179 218.5,190.5C 204.192,170.518 189.858,150.518 175.5,130.5C 195.489,129.5 215.489,129.167 235.5,129.5C 235.5,137.167 235.5,144.833 235.5,152.5C 249.833,152.5 264.167,152.5 278.5,152.5C 278.5,130.5 278.5,108.5 278.5,86.5C 218.5,86.5 158.5,86.5 98.5,86.5C 98.0488,96.9377 98.5488,107.271 100,117.5C 122.833,147.667 145.667,177.833 168.5,208C 163.669,214.992 158.669,221.825 153.5,228.5C 104.725,256.057 56.0586,283.89 7.5,312C 5.97506,313.009 4.30839,313.509 2.5,313.5C 1.10008,312.9 0.100078,311.9 -0.5,310.5C -0.5,243.5 -0.5,176.5 -0.5,109.5C 1.30787,106.564 3.1412,103.564 5,100.5C 64.0267,65.9059 123.527,32.2392 183.5,-0.5 Z"/></g>
<g><path style="opacity:1" fill="#fefffe" d="M 218.5,190.5 C 222.793,195.955 226.459,201.789 229.5,208C 225.89,214.716 221.89,221.216 217.5,227.5C 203.066,247.512 188.732,267.679 174.5,288C 195.831,288.5 217.164,288.667 238.5,288.5C 238.5,280.833 238.5,273.167 238.5,265.5C 252.5,265.5 266.5,265.5 280.5,265.5C 280.5,287.5 280.5,309.5 280.5,331.5C 219.833,331.5 159.167,331.5 98.5,331.5C 98.3335,321.494 98.5002,311.494 99,301.5C 117.384,277.289 135.55,252.956 153.5,228.5C 158.669,221.825 163.669,214.992 168.5,208C 145.667,177.833 122.833,147.667 100,117.5C 98.5488,107.271 98.0488,96.9377 98.5,86.5C 158.5,86.5 218.5,86.5 278.5,86.5C 278.5,108.5 278.5,130.5 278.5,152.5C 264.167,152.5 249.833,152.5 235.5,152.5C 235.5,144.833 235.5,137.167 235.5,129.5C 215.489,129.167 195.489,129.5 175.5,130.5C 189.858,150.518 204.192,170.518 218.5,190.5 Z"/></g>
<g><path style="opacity:1" fill="#00589c" d="M 373.5,100.5 C 375.885,102.884 377.885,105.55 379.5,108.5C 379.5,175.5 379.5,242.5 379.5,309.5C 378.692,311.22 377.692,312.887 376.5,314.5C 323.054,286.278 270.054,257.278 217.5,227.5C 221.89,221.216 225.89,214.716 229.5,208C 226.459,201.789 222.793,195.955 218.5,190.5C 269.806,161.179 321.139,131.845 372.5,102.5C 373.298,102.043 373.631,101.376 373.5,100.5 Z"/></g>
<g><path style="opacity:1" fill="#004382" d="M 217.5,227.5 C 270.054,257.278 323.054,286.278 376.5,314.5C 375.303,317.382 373.303,319.549 370.5,321C 311.697,354.397 252.697,387.23 193.5,419.5C 190.5,419.5 187.5,419.5 184.5,419.5C 123.86,386.428 63.6936,352.428 4,317.5C 3.20858,316.255 2.70858,314.922 2.5,313.5C 4.30839,313.509 5.97506,313.009 7.5,312C 56.0586,283.89 104.725,256.057 153.5,228.5C 135.55,252.956 117.384,277.289 99,301.5C 98.5002,311.494 98.3335,321.494 98.5,331.5C 159.167,331.5 219.833,331.5 280.5,331.5C 280.5,309.5 280.5,287.5 280.5,265.5C 266.5,265.5 252.5,265.5 238.5,265.5C 238.5,273.167 238.5,280.833 238.5,288.5C 217.164,288.667 195.831,288.5 174.5,288C 188.732,267.679 203.066,247.512 217.5,227.5 Z"/></g>
</svg>
